
      <svg data-logo="logo" xmlns="http://www.w3.org/2000/svg" viewBox="0 0 115 43">
        <g id="logogram" transform="translate(0, 1) rotate(0)"><path d="M0.301758 30.08L0.301761 10.08L10.3018 15.6355V24.5799L18.3018 29.08L26.3018 24.5799V15.6355L36.3019 10.08V30.08L18.3018 40.08L0.301758 30.08Z" fill="#192657"/><path fill-rule="evenodd" clip-rule="evenodd" d="M5.30177 12.8578L0.301758 10.08L18.3018 0.0799561L36.3019 10.08L31.3018 12.8578V27.58L18.3018 35.08L5.30176 27.58L5.30177 12.8578ZM30.7602 13.1587L26.3018 15.6355V15.58L18.3018 11.0799L10.3018 15.58V15.6355L5.84343 13.1587V27.2723L18.3018 34.4598L30.7602 27.2723V13.1587Z" fill="url(#paint0_linear_5558_2243)"/></g>
        <g id="logotype" transform="translate(43, 9)"><path fill="#ffffff" d="M17.38 24.61L17.38 24.61Q19.13 24.61 20.47 23.67Q21.82 22.73 21.82 20.82Q21.82 18.91 20.37 17.89Q18.91 16.88 16.24 16.13Q13.56 15.37 12.35 14.81Q11.14 14.25 10.06 13.34L10.06 13.34Q7.89 11.52 7.89 7.71L7.89 7.71Q7.89 4.59 10.11 2.35Q12.34 0.11 16.19 0.11L16.19 0.11Q18.04 0.11 20.05 0.66Q22.07 1.20 22.56 1.20Q23.05 1.20 23.43 0.50L23.43 0.50L23.82 0.50L24.06 7.57L23.50 7.57Q21.82 4.52 19.98 2.69Q18.15 0.85 15.99 0.85Q13.84 0.85 12.65 1.85Q11.46 2.84 11.46 4.51Q11.46 6.17 12.88 7.06Q14.29 7.95 16.36 8.51Q18.43 9.07 19.07 9.28Q19.72 9.49 20.68 9.86Q21.65 10.23 22.26 10.63Q22.87 11.03 23.55 11.65Q24.24 12.26 24.62 12.99L24.62 12.99Q25.57 14.67 25.57 16.98L25.57 16.98Q25.57 20.77 23.20 23.06Q20.84 25.35 16.99 25.35L16.99 25.35Q15.00 25.35 12.42 24.82Q9.85 24.30 9.57 24.30L9.57 24.30Q9.08 24.30 8.63 25.35L8.63 25.35L8.13 25.35L7.79 17.02L8.38 17.02Q9.92 20.06 12.32 22.34Q14.72 24.61 17.38 24.61ZM38.48 12.61L38.48 12.61L36.63 12.61L36.63 24.34L38.90 24.34L38.90 25L27.53 25L27.53 24.34L29.80 24.34L29.80 1.16L27.53 1.16L27.53 0.50L38.10 0.50Q42.65 0.50 44.55 0.97Q46.46 1.44 47.23 2.11L47.23 2.11Q48.91 3.47 48.91 6.45Q48.91 9.42 47.44 10.70Q45.97 11.98 42.96 12.22L42.96 12.22L42.96 12.33Q45.80 12.71 46.92 14.01Q48.04 15.30 48.04 18.35L48.04 18.35L48.04 20.20Q48.04 22.02 48.23 22.66Q48.42 23.29 49.05 23.29Q49.68 23.29 50.05 22.71Q50.42 22.13 50.73 20.27L50.73 20.27L51.33 20.34Q50.94 23.32 49.98 24.34Q49.02 25.35 46.15 25.35Q43.28 25.35 42.07 24.00Q40.86 22.66 40.86 18.95L40.86 18.95L40.86 16.39Q40.86 14.43 40.35 13.52Q39.85 12.61 38.48 12.61ZM37.78 1.16L36.63 1.16L36.63 11.94L37.75 11.94Q39.74 11.94 40.70 10.72Q41.67 9.49 41.67 6.73L41.67 6.73L41.67 5.71Q41.67 2.95 40.74 2.06Q39.81 1.16 37.78 1.16L37.78 1.16ZM62.73 24.61L62.73 24.61Q64.48 24.61 65.83 23.67Q67.18 22.73 67.18 20.82Q67.18 18.91 65.73 17.89Q64.28 16.88 61.60 16.13Q58.92 15.37 57.71 14.81Q56.51 14.25 55.42 13.34L55.42 13.34Q53.25 11.52 53.25 7.71L53.25 7.71Q53.25 4.59 55.47 2.35Q57.70 0.11 61.55 0.11L61.55 0.11Q63.40 0.11 65.41 0.66Q67.42 1.20 67.92 1.20Q68.41 1.20 68.79 0.50L68.79 0.50L69.17 0.50L69.42 7.57L68.86 7.57Q67.18 4.52 65.34 2.69Q63.51 0.85 61.35 0.85Q59.20 0.85 58.01 1.85Q56.82 2.84 56.82 4.51Q56.82 6.17 58.24 7.06Q59.66 7.95 61.72 8.51Q63.78 9.07 64.43 9.28Q65.08 9.49 66.04 9.86Q67.00 10.23 67.62 10.63Q68.23 11.03 68.91 11.65Q69.59 12.26 69.98 12.99L69.98 12.99Q70.92 14.67 70.92 16.98L70.92 16.98Q70.92 20.77 68.56 23.06Q66.20 25.35 62.35 25.35L62.35 25.35Q60.36 25.35 57.78 24.82Q55.21 24.30 54.93 24.30L54.93 24.30Q54.44 24.30 53.98 25.35L53.98 25.35L53.49 25.35L53.14 17.02L53.74 17.02Q55.28 20.06 57.68 22.34Q60.08 24.61 62.73 24.61Z"/></g>
        <defs xmlns="http://www.w3.org/2000/svg">
<linearGradient id="paint0_linear_5558_2243" x1="5.30176" y1="7.85773" x2="32.3018" y2="7.85774" gradientUnits="userSpaceOnUse">
<stop stop-color="#64C2DB"/>
<stop offset="0.307292" stop-color="#7476ED"/>
<stop offset="0.604167" stop-color="#C994DF"/>
<stop offset="1" stop-color="#E56F8C"/>
</linearGradient>
</defs>
      </svg>
    